<?xml version="1.0" encoding="UTF-8" standalone="no"?>
<!-- Generator: Adobe Illustrator 16.0.0, SVG Export Plug-In . SVG Version: 6.00 Build 0)  -->
<!DOCTYPE svg  PUBLIC '-//W3C//DTD SVG 1.1//EN'  'http://www.w3.org/Graphics/SVG/1.1/DTD/svg11.dtd'>
<svg id="Layer_1" xmlns="http://www.w3.org/2000/svg" xml:space="preserve" height="65.066px" viewBox="0 0 188.357 65.066" width="188.36px" version="1.1" y="0px" x="0px" xmlns:xlink="http://www.w3.org/1999/xlink" enable-background="new 0 0 188.357 65.066">
			<defs>
				<path id="SVGID_1_" d="m165.93 47.728c0.307 1.662 0.424 3.367 0.27 5.109-1.586 5.727-16.562 12.229-28.41 9.02 9.101 2.902 18.152 2.091 27.133-2.981 0 0 0-0.039 0.043-0.039 8.357-4.992 14.084-11.879 15.593-21.831-4.29 4.567-9.17 8.13-14.62 10.722m-5-14.243c1.741 3.716 3.137 7.47 4.102 11.302-5.459 4.217-14.707 6.58-23.262 7.235 8.322 0.623 19.471-2.285 23.844-4.955 6.967-4.407 12.848-9.174 15.326-14.861 0.27-3.093-0.305-6.423-1.354-9.52-5.77 4.453-12 7.935-18.66 10.799m-8.55-28.448c-1.819 1.857-3.948 3.483-6.383 4.838 2.279 2.632 4.406 5.417 6.383 8.245 1.914 2.758 3.691 5.598 5.328 8.509-1.426 1.037-3.069 2.104-4.883 3.175-6.891 4.063-16.178 8.049-24.463 10.411 8.359-2.014 16.6-5.031 24.463-8.593 1.826-0.813 7.014-3.442 7.055-3.462v-0.003c6.312-3.249 11.908-7.065 16.457-12.94-4.834-7.508-11.416-12.653-20.434-14.513-1.05 1.546-2.22 3.02-3.53 4.333m-14.05-3.29c-1.822 0.466-4.26 2.09-4.875 3.174-1.008 1.664-0.776 3.406 4.797 2.207-3.946-0.738-4.182-2.904-0.041-5.302 1.822 1.74 3.644 3.482 5.345 5.342-3.757 3.947-10.064 6.81-17.884 9.171 7.316-0.891 14.244-3.097 19.857-7.16 3.984-2.79 6.887-5.77 7.895-8.943-1.27-0.159-2.54-0.236-3.82-0.236-3.67 0-7.45 0.629-11.29 1.747"/>
			</defs>
			<clipPath id="SVGID_2_">
				<use overflow="visible" xlink:href="#SVGID_1_"/>
			</clipPath>
				<linearGradient id="SVGID_3_" y2="354.58" gradientUnits="userSpaceOnUse" x2="-708.17" gradientTransform="matrix(0 -63.526 63.526 0 -22372 -44987)" y1="354.58" x1="-709.17">
				<stop stop-color="#416819" offset="0"/>
				<stop stop-color="#4B741F" offset=".196"/>
				<stop stop-color="#65942D" offset=".5979"/>
				<stop stop-color="#82B83A" offset="1"/>
			</linearGradient>
			<rect clip-path="url(#SVGID_2_)" height="65.066" width="55.539" y="0" x="125.67" fill="url(#SVGID_3_)"/>
			<defs>
				<path id="SVGID_4_" d="m19.975 60.198c-0.351 0.389-0.509 0.812-0.509 1.274 0 0.504 0.158 0.933 0.509 1.275 0.387 0.352 0.812 0.508 1.278 0.508 0.498 0 0.925-0.156 1.273-0.508 0.311-0.385 0.506-0.812 0.506-1.275s-0.195-0.887-0.541-1.274c-0.352-0.351-0.777-0.546-1.238-0.546-0.466 0.001-0.892 0.197-1.278 0.546m4.216 0c-0.346 0.389-0.541 0.812-0.541 1.274 0 0.504 0.195 0.933 0.541 1.275 0.348 0.352 0.772 0.508 1.279 0.508 0.463 0 0.889-0.156 1.235-0.508 0.351-0.385 0.539-0.812 0.539-1.275 0-0.504-0.188-0.932-0.539-1.274-0.348-0.351-0.772-0.546-1.235-0.546-0.505 0.001-0.931 0.197-1.279 0.546m52.637-0.148c-0.348 0.348-0.541 0.771-0.541 1.275 0 0.461 0.193 0.893 0.541 1.241s0.775 0.539 1.238 0.539c0.504 0 0.93-0.19 1.272-0.539 0.354-0.35 0.543-0.78 0.543-1.241 0-0.505-0.188-0.929-0.543-1.275-0.344-0.348-0.77-0.541-1.272-0.541-0.462 0-0.89 0.154-1.238 0.541m-74.002-12.5c-0.654 0.965-1.158 1.664-1.584 2.047h9.832c0.773 0 1.312 0.156 1.662 0.543 0.27 0.271 0.428 0.736 0.428 1.398v1.192h-11.922v3.834h26.588v-11.106c0-0.39-0.117-0.58-0.348-0.58l-0.353 0.076c-0.073 0.037-0.231 0.194-0.385 0.465-0.195 0.158-0.387 0.35-0.58 0.541-0.156 0.119-0.389 0.313-0.694 0.582l-0.814 0.656-0.465 0.312c-0.193 0.115-0.312 0.229-0.387 0.35-0.113 0.074-0.154 0.193-0.154 0.308 0 0.233 0.078 0.387 0.195 0.463 0.114 0.156 0.188 0.311 0.188 0.43v3.672h-7.08v-1.623c0-1.977-0.543-3.407-1.627-4.297-0.852-0.657-2.014-1.006-3.525-1.006h-5.957c-0.191-0.039-0.462-0.154-0.73-0.271-0.275-0.195-0.545-0.545-0.855-1.011-0.193 0.781-0.655 1.783-1.433 3.025m89.869-12.425c-0.074 0.038-0.23 0.193-0.422 0.425-0.312 0.347-0.736 0.738-1.277 1.16l-0.658 0.543-0.58 0.385-0.348 0.273c-0.119 0.153-0.197 0.27-0.197 0.385 0 0.231 0.078 0.389 0.197 0.508 0.111 0.152 0.191 0.266 0.191 0.383v13.545h-2.824c-0.773 0-1.437-0.27-1.975-0.731-0.31-0.31-0.619-0.773-0.97-1.314-0.348-0.582-0.658-1.276-1.004-2.17-1.168-2.67-2.438-4.488-3.912-5.455-1.125-0.737-2.631-1.084-4.487-1.084l-0.892 0.037-0.772 0.115-0.97 0.27 1.584 4.3c0.195-0.238 0.433-0.423 0.74-0.541 0.191-0.115 0.351-0.154 0.465-0.195l0.615-0.039c1.24 0 2.211 0.582 2.865 1.705l1.432 3.287 0.426 0.776 0.47 0.658c0.114 0.154 0.266 0.31 0.422 0.383h-34.675v-1.624c0-1.977-0.543-3.407-1.668-4.297-0.853-0.657-2.013-1.006-3.484-1.006h-5.959c-0.232-0.039-0.463-0.154-0.736-0.271-0.266-0.195-0.58-0.545-0.846-1.011-0.197 0.779-0.658 1.781-1.438 3.023-0.655 0.965-1.159 1.664-1.586 2.047h9.832c0.732 0 1.316 0.156 1.625 0.543 0.312 0.271 0.427 0.736 0.427 1.398v1.192h-11.884v3.834h62.976v-20.936c0-0.427-0.115-0.619-0.351-0.619l-0.352 0.118zm7.278 0l-0.425 0.425-0.582 0.541-0.696 0.619c-0.386 0.35-0.812 0.663-1.195 0.928l-0.393 0.273c-0.115 0.192-0.191 0.307-0.191 0.385 0 0.195 0.076 0.35 0.191 0.508 0.118 0.113 0.194 0.266 0.194 0.383v17.379h3.791v-20.94c0-0.427-0.112-0.619-0.385-0.619l-0.307 0.118zm-94.203-24.134l-0.158 0.312-1.779 3.018-0.229 0.466-0.078 0.271 0.037 0.309 0.076 0.115 0.155 0.197 0.312 0.27c0.617 0.539 1.08 1.198 1.432 2.01 0.385 0.816 0.539 1.628 0.539 2.401 0 1.433-0.498 2.633-1.508 3.599-1.043 0.969-2.246 1.473-3.676 1.473h-0.194c-0.271 0-0.465 0.04-0.541 0.077-0.117 0.077-0.158 0.15-0.158 0.268 0 0.311 0.312 0.583 0.97 0.774 0.62 0.193 1.395 0.31 2.284 0.31 2.129 0 3.869-0.657 5.146-1.936 1.315-1.313 1.938-3.019 1.938-5.146 0-0.659-0.08-1.355-0.235-2.128-0.115-0.738-0.349-1.474-0.617-2.171-0.271-0.694-0.582-1.315-0.853-1.897-0.311-0.54-0.616-1.081-0.965-1.544-0.698-0.892-1.203-1.318-1.477-1.318-0.152 0-0.269 0.077-0.421 0.27m16.371 2.014c-0.697 0.969-1.238 1.664-1.664 2.052h10.371c0.813 0 1.395 0.195 1.741 0.54 0.312 0.312 0.427 0.777 0.427 1.396v1.199h-12.539v3.832h43.62c0.463 1.2 1.237 2.168 2.319 2.902 1.047 0.733 2.285 1.087 3.64 1.087v-3.794c-0.349 0-0.617-0.041-0.892-0.157-0.229-0.116-0.463-0.229-0.656-0.463-0.465-0.389-0.657-0.891-0.657-1.471s0.192-1.049 0.657-1.473c0.427-0.387 0.931-0.618 1.548-0.618v-4.722l-0.541 0.463-0.427 0.387-1.586 0.583c-0.539 0.232-1.045 0.503-1.434 0.812-0.426 0.35-0.775 0.735-1.121 1.161-0.35 0.425-0.621 0.931-0.852 1.47h-27.055v-1.586c0-2.014-0.578-3.445-1.74-4.336-0.891-0.654-2.133-1.006-3.68-1.006h-6.305c-0.195-0.039-0.463-0.115-0.775-0.271-0.271-0.151-0.578-0.502-0.889-1.007-0.196 0.776-0.696 1.78-1.51 3.02m-5.342-12.423l-0.461 0.425-0.58 0.544-0.739 0.617c-0.427 0.347-0.853 0.657-1.273 0.93l-0.43 0.308c-0.15 0.158-0.191 0.272-0.191 0.389 0 0.156 0.041 0.309 0.191 0.463 0.117 0.117 0.192 0.27 0.192 0.388v17.378h3.99v-20.938c0-0.427-0.117-0.62-0.35-0.62l-0.349 0.116zm75.086 0c-0.075 0.038-0.231 0.19-0.463 0.425l-0.621 0.579-0.694 0.582c-0.543 0.425-0.969 0.731-1.316 0.93l-0.352 0.269c-0.152 0.157-0.269 0.27-0.269 0.428 0 0.156 0.078 0.347 0.232 0.501 0.117 0.156 0.193 0.272 0.193 0.35v13.546h-12.619l-0.427-0.852c-0.114-0.232-0.272-0.465-0.426-0.655-0.19-0.272-0.387-0.467-0.582-0.661-0.151-0.153-0.346-0.309-0.539-0.463-0.465-0.35-0.928-0.62-1.393-0.773-0.314-0.154-0.58-0.233-0.853-0.351l-0.774-0.271-0.195-0.155-0.229-0.231c-0.152-0.155-0.273-0.271-0.39-0.347l-0.114-0.116v4.722c0.618 0.038 1.125 0.231 1.551 0.618 0.426 0.424 0.656 0.893 0.656 1.473 0 0.617-0.23 1.082-0.656 1.509-0.426 0.387-0.933 0.582-1.551 0.582v3.794c1.354 0 2.594-0.389 3.68-1.125 1.08-0.773 1.815-1.702 2.242-2.864h16.607v-20.94c0-0.427-0.119-0.62-0.352-0.62l-0.346 0.116zm7.74 0l-0.465 0.425-0.58 0.544-0.735 0.617c-0.427 0.347-0.853 0.657-1.277 0.93l-0.426 0.308c-0.113 0.158-0.191 0.272-0.191 0.389 0 0.156 0.078 0.309 0.191 0.463 0.155 0.117 0.196 0.27 0.196 0.388v17.378h4.023v-20.938c0-0.427-0.154-0.62-0.389-0.62l-0.346 0.116z"/>
			</defs>
			<clipPath id="SVGID_5_">
				<use overflow="visible" xlink:href="#SVGID_4_"/>
			</clipPath>
				<linearGradient id="SVGID_6_" y2="354.71" gradientUnits="userSpaceOnUse" x2="-708.22" gradientTransform="matrix(0 -62.791 62.791 0 -22222 -44470)" y1="354.71" x1="-709.22">
				<stop stop-color="#416819" offset="0"/>
				<stop stop-color="#4B741F" offset=".2029"/>
				<stop stop-color="#65942D" offset=".6161"/>
				<stop stop-color="#7FB539" offset="1"/>
			</linearGradient>
			<rect clip-path="url(#SVGID_5_)" height="62.791" width="100.67" y=".466" x="0" fill="url(#SVGID_6_)"/>
		<path d="m106.79 47.021c0.209 0 0.438-0.008 0.683-0.012 61.592-9.426 102.55-41.938 59.682-46.096 0.084 0.02 0.162 0.037 0.24 0.058 41.48 7.553-6.96 37.28-60.6 46.05" fill="#9D9FA2"/>
		<path d="m167.01 0.897c0.078 0.013 0.152 0.026 0.23 0.041-0.035-0.012-0.068-0.02-0.1-0.028-0.04-0.004-0.08-0.01-0.13-0.013" fill="#9D9FA2"/>
		<path d="m167.09 0.897c0.015 0.003 0.031 0.01 0.054 0.013 0.006 0 0.01 0.003 0.016 0.003-0.02-0.007-0.05-0.011-0.07-0.016" fill="#9D9FA2"/>
		<path d="m106.75 47.021c48.312-8.367 102.78-36.53 60.646-46.05-0.053-0.012-0.105-0.023-0.158-0.032 37.02 9.823-10.859 35.347-57.471 45.162-0.74 0.156-3.365 0.662-4.103 0.775-0.199 0.033-0.381 0.061-0.551 0.09 0.36 0.037 0.88 0.06 1.63 0.055" fill="#939598"/>
		<path d="m167.16 0.912c-0.006 0-0.012-0.003-0.018-0.003 0.032 0.009 0.067 0.018 0.102 0.028 0.053 0.01 0.105 0.021 0.156 0.032-0.08-0.019-0.16-0.036-0.24-0.057" fill="#9D9FA2"/>
		<path d="m174.12 1.022c26.428 2.472 13.002 26.082-34.422 39.535-0.117 0.031-0.234 0.066-0.35 0.099-0.14 0.04-0.279 0.075-0.418 0.118-4.728 1.336-9.746 2.545-15.027 3.597-4.17 0.84-8.547 1.604-13.109 2.28-0.686 0.104-1.379 0.201-2.065 0.306 0.86-0.047 1.897-0.121 3.127-0.23 3.385-0.492 6.666-1.035 9.836-1.629 63.12-11.862 83.31-41.879 52.43-44.076"/>
		<path d="m110.79 46.649c3.658-0.562 7.238-1.176 10.742-1.828 0.795-0.146 1.588-0.299 2.367-0.45 5.332-1.082 10.344-2.287 15.027-3.597 0.139-0.043 0.276-0.078 0.418-0.118 0.114-0.031 0.229-0.066 0.35-0.099 45.234-13 63.436-37.49 28.24-39.622 2.254-0.082 4.309-0.046 6.182 0.087-2.164-0.203-4.598-0.264-7.301-0.165 42.299 2.469 6.967 36.327-58.863 46.137 0.215-0.011 0.438-0.023 0.672-0.033 0.73-0.101 1.44-0.206 2.16-0.312" fill="#939598"/>
		<path d="m110.79 46.649c4.562-0.674 8.939-1.438 13.109-2.278-0.779 0.151-1.572 0.305-2.367 0.45-3.5 0.653-7.08 1.266-10.74 1.828" fill="#BCBEC0"/>
		<path d="m139.35 40.656c-0.142 0.04-0.279 0.075-0.418 0.118 0.14-0.043 0.28-0.078 0.42-0.118" fill="#BCBEC0"/>
		<path d="m167.94 0.936c35.196 2.132 16.996 26.623-28.236 39.622 47.422-13.453 60.848-37.063 34.42-39.535-1.87-0.133-3.93-0.17-6.18-0.087" fill="#939598"/>
</svg>
