<svg xmlns="http://www.w3.org/2000/svg" width="51.056" height="54" viewBox="0 0 51.056 54">
  <g id="Group_103" data-name="Group 103" transform="translate(-455.536 -72.11)">
    <g id="Group_98" data-name="Group 98" transform="translate(455.536 72.11)">
      <path id="Path_331" data-name="Path 331" d="M458.088,87.217v28.232h40.244V87.217a13.284,13.284,0,0,0-13.284-13.284H471.372A13.284,13.284,0,0,0,458.088,87.217Z" transform="translate(-457.451 -73.477)" fill="#72c6a7"/>
      <path id="Path_332" data-name="Path 332" d="M496.965,114.537H456.721a.455.455,0,0,1-.455-.455V85.85A13.755,13.755,0,0,1,470.005,72.11h13.675A13.755,13.755,0,0,1,497.42,85.85v28.232A.455.455,0,0,1,496.965,114.537Zm-39.789-.91H496.51V85.85a12.844,12.844,0,0,0-12.829-12.829H470.005A12.844,12.844,0,0,0,457.176,85.85v27.777Z" transform="translate(-456.084 -72.11)" fill="#345141"/>
      <path id="Path_333" data-name="Path 333" d="M477.052,114.464v25.2a12.685,12.685,0,0,0,12.685,12.685h5.4a12.685,12.685,0,0,0,12.685-12.685v-25.2h-30.77Z" transform="translate(-471.678 -103.885)" fill="#f1f7f4"/>
      <path id="Path_334" data-name="Path 334" d="M552.3,114.464v25.2a12.685,12.685,0,0,1-12.685,12.685h2.46a12.685,12.685,0,0,0,12.685-12.685v-25.2Z" transform="translate(-518.613 -103.885)" fill="#cee2db"/>
      <path id="Path_335" data-name="Path 335" d="M493.77,151.434h-5.4a13.155,13.155,0,0,1-13.14-13.14V113.1a.455.455,0,0,1,.455-.455h30.771a.455.455,0,0,1,.455.455v25.2A13.155,13.155,0,0,1,493.77,151.434ZM476.14,113.551v24.743a12.243,12.243,0,0,0,12.229,12.23h5.4A12.243,12.243,0,0,0,506,138.294V113.551Z" transform="translate(-470.311 -102.518)" fill="#345141"/>
      <g id="Group_94" data-name="Group 94" transform="translate(7.082 22.168)">
        <g id="Group_92" data-name="Group 92" transform="translate(2.615 2.865)">
          <circle id="Ellipse_48" data-name="Ellipse 48" cx="1.922" cy="1.922" r="1.922" transform="translate(18.28)" fill="#345141"/>
          <circle id="Ellipse_49" data-name="Ellipse 49" cx="1.922" cy="1.922" r="1.922" fill="#345141"/>
        </g>
        <g id="Group_93" data-name="Group 93">
          <path id="Path_336" data-name="Path 336" d="M567.892,161.773h-7.433a.455.455,0,0,1,0-.91h7.433a.455.455,0,0,1,0,.91Z" transform="translate(-540.993 -160.863)" fill="#345141"/>
          <path id="Path_337" data-name="Path 337" d="M491.777,161.773h-7.433a.455.455,0,1,1,0-.91h7.433a.455.455,0,0,1,0,.91Z" transform="translate(-483.889 -160.863)" fill="#345141"/>
        </g>
      </g>
      <path id="Path_338" data-name="Path 338" d="M522.745,223.29a8.427,8.427,0,0,1-3.622-.741,2.137,2.137,0,0,1,0-4.172,9.221,9.221,0,0,1,7.245,0,2.137,2.137,0,0,1,0,4.172A8.427,8.427,0,0,1,522.745,223.29Zm0-4.745c-2.584,0-4.385,1.01-4.385,1.917s1.8,1.917,4.385,1.917,4.384-1.01,4.384-1.917S525.329,218.546,522.745,218.546Z" transform="translate(-501.986 -181.287)" fill="#345141"/>
      <g id="Group_97" data-name="Group 97" transform="translate(0 26.5)">
        <g id="Group_95" data-name="Group 95" transform="translate(0.455 0.455)">
          <path id="Path_339" data-name="Path 339" d="M601.88,189.089h-1.637v-9.06h1.637a3.282,3.282,0,0,1,3.282,3.283v2.495A3.283,3.283,0,0,1,601.88,189.089Z" transform="translate(-564.554 -180.029)" fill="#eaf6f7"/>
          <path id="Path_340" data-name="Path 340" d="M460.64,189.089h1.637v-9.06H460.64a3.282,3.282,0,0,0-3.282,3.283v2.495A3.283,3.283,0,0,0,460.64,189.089Z" transform="translate(-457.357 -180.029)" fill="#eaf6f7"/>
        </g>
        <g id="Group_96" data-name="Group 96">
          <path id="Path_341" data-name="Path 341" d="M600.514,188.177h-1.637a.455.455,0,0,1-.455-.455v-9.06a.455.455,0,0,1,.455-.455h1.637a3.742,3.742,0,0,1,3.738,3.738v2.495A3.742,3.742,0,0,1,600.514,188.177Zm-1.181-.91h1.182a2.831,2.831,0,0,0,2.828-2.827v-2.495a2.831,2.831,0,0,0-2.828-2.827h-1.182Z" transform="translate(-562.733 -178.207)" fill="#345141"/>
          <path id="Path_342" data-name="Path 342" d="M460.91,188.177h-1.636a3.742,3.742,0,0,1-3.738-3.738v-2.495a3.742,3.742,0,0,1,3.738-3.738h1.636a.455.455,0,0,1,.455.455v9.06A.455.455,0,0,1,460.91,188.177Zm-1.637-9.06a2.831,2.831,0,0,0-2.827,2.827v2.495a2.831,2.831,0,0,0,2.827,2.827h1.181v-8.15Z" transform="translate(-455.536 -178.207)" fill="#345141"/>
        </g>
      </g>
      <path id="Path_343" data-name="Path 343" d="M582.242,116.535h-1.821a7.451,7.451,0,0,1-7.451-7.451v-4.177h4.567a4.705,4.705,0,0,1,4.705,4.705Z" transform="translate(-543.638 -96.715)" fill="#72c6a7"/>
      <path id="Path_344" data-name="Path 344" d="M469.663,108h15.46a12.115,12.115,0,0,0,12.115-12.115V92.936H479.162a9.5,9.5,0,0,0-9.5,9.5Z" transform="translate(-466.134 -87.735)" fill="#72c6a7"/>
      <path id="Path_345" data-name="Path 345" d="M581.523,134.054H579.5a7.694,7.694,0,0,1-7.479-5.837.455.455,0,0,1,.883-.22,6.785,6.785,0,0,0,6.6,5.147h2.019a.455.455,0,0,1,0,.91Z" transform="translate(-542.918 -113.779)" fill="#345141"/>
      <path id="Path_346" data-name="Path 346" d="M484.078,116.067H468.3a.455.455,0,1,1,0-.91h15.781a11.334,11.334,0,0,0,11.339-11.339v-.277a.455.455,0,0,1,.91,0v.277a12.245,12.245,0,0,1-12.249,12.249Z" transform="translate(-464.768 -95.349)" fill="#345141"/>
      <path id="Path_347" data-name="Path 347" d="M467.655,95.5a1.138,1.138,0,0,1-1.138-1.138,11.79,11.79,0,0,1,11.777-11.777,1.138,1.138,0,0,1,0,2.275,9.512,9.512,0,0,0-9.5,9.5A1.138,1.138,0,0,1,467.655,95.5Z" transform="translate(-463.774 -79.969)" fill="#b3ddca"/>
    </g>
    <g id="Group_101" data-name="Group 101" transform="translate(478.536 98.057)">
      <rect id="Rectangle_306" data-name="Rectangle 306" width="3.919" height="3.711" transform="translate(15.818 18.589) rotate(-45)" fill="#fdc57a"/>
      <path id="Path_348" data-name="Path 348" d="M612.211,243.8a.455.455,0,0,1-.322-.133l-2.624-2.624a.455.455,0,0,1,0-.644l2.771-2.771a.455.455,0,0,1,.644,0l2.624,2.624a.455.455,0,0,1,0,.644l-2.771,2.771A.455.455,0,0,1,612.211,243.8Zm-1.98-3.079,1.98,1.98,2.127-2.127-1.98-1.98Z" transform="translate(-593.768 -222.131)" fill="#345141"/>
      <path id="Path_349" data-name="Path 349" d="M623.088,256.7l-4.333-4.333a1.154,1.154,0,0,1,0-1.632l3.614-3.614a1.154,1.154,0,0,1,1.632,0l4.333,4.333Z" transform="translate(-600.734 -229.098)" fill="#72c6a7"/>
      <path id="Path_350" data-name="Path 350" d="M620.141,257.055l-1.385,1.385a1.154,1.154,0,0,0,0,1.632l4.333,4.333,1.385-1.385-4.333-4.333A1.154,1.154,0,0,1,620.141,257.055Z" transform="translate(-600.734 -236.807)" fill="#5aad8b"/>
      <path id="Path_351" data-name="Path 351" d="M621.723,255.787a.454.454,0,0,1-.322-.133l-4.333-4.333a1.611,1.611,0,0,1,0-2.276l3.614-3.614a1.611,1.611,0,0,1,2.276,0l4.333,4.333a.455.455,0,0,1-.644.644l-4.333-4.333a.7.7,0,0,0-.989,0l-3.614,3.614a.7.7,0,0,0,0,.989l4.333,4.333a.455.455,0,0,1-.322.777Z" transform="translate(-599.369 -227.733)" fill="#345141"/>
      <g id="Group_99" data-name="Group 99" transform="translate(0 0)">
        <circle id="Ellipse_50" data-name="Ellipse 50" cx="8.705" cy="8.705" r="8.705" transform="translate(0 12.31) rotate(-45)" fill="#f1f7f4"/>
        <path id="Path_352" data-name="Path 352" d="M569.412,206.916a9.155,9.155,0,0,1-6.477-15.632h0a9.16,9.16,0,1,1,6.477,15.632Zm0-17.405a8.2,8.2,0,0,0-5.833,2.416h0a8.249,8.249,0,1,0,5.833-2.416Zm-6.155,2.094h0Z" transform="translate(-557.1 -185.451)" fill="#345141"/>
      </g>
      <g id="Group_100" data-name="Group 100" transform="translate(5.155 5.174)">
        <path id="Path_353" data-name="Path 353" d="M568.753,204.333a.493.493,0,0,1-.493-.493,7.149,7.149,0,0,1,6.593-7.134.493.493,0,0,1,.077.983,6.192,6.192,0,0,0-1.384.27,6.175,6.175,0,0,0-4.3,5.881A.493.493,0,0,1,568.753,204.333Z" transform="translate(-568.26 -196.705)" fill="#fff"/>
        <path id="Path_354" data-name="Path 354" d="M601.6,198.378a.492.492,0,0,1-.164-.028,6.179,6.179,0,0,0-.844-.232.493.493,0,0,1,.193-.967,7.167,7.167,0,0,1,.979.269.493.493,0,0,1-.164.958Z" transform="translate(-592.216 -197.033)" fill="#fff"/>
      </g>
    </g>
    <g id="Group_102" data-name="Group 102" transform="translate(485.942 106.517)">
      <circle id="Ellipse_51" data-name="Ellipse 51" cx="0.999" cy="0.999" r="0.999" transform="translate(1.95 0)" fill="#f9a01b"/>
      <circle id="Ellipse_52" data-name="Ellipse 52" cx="0.999" cy="0.999" r="0.999" transform="translate(5.22 7.141)" fill="#f9a01b"/>
      <circle id="Ellipse_53" data-name="Ellipse 53" cx="0.999" cy="0.999" r="0.999" transform="translate(8.395 0)" fill="#f9a01b"/>
      <circle id="Ellipse_54" data-name="Ellipse 54" cx="0.999" cy="0.999" r="0.999" transform="translate(0 6.566)" fill="#f9a01b"/>
      <circle id="Ellipse_55" data-name="Ellipse 55" cx="0.999" cy="0.999" r="0.999" transform="translate(5.173 3.09)" fill="#f9a01b"/>
    </g>
  </g>
</svg>
