<svg xmlns="http://www.w3.org/2000/svg" width="47.773" height="48.349" viewBox="0 0 47.773 48.349">
  <g id="Group_393" data-name="Group 393" transform="translate(-117.159 -23.744)">
    <path id="Fill_1" data-name="Fill 1" d="M42.964,36.655A11.813,11.813,0,0,0,36.433,32L30.27,30.27v-4.43a11.056,11.056,0,0,0,4.421-8.521,2.953,2.953,0,1,0,.009-5.408v-.838A11.075,11.075,0,0,0,23.626,0h0A11.074,11.074,0,0,0,12.551,11.075v.838a2.953,2.953,0,1,0,.009,5.408,11.056,11.056,0,0,0,4.421,8.521v4.43L10.818,32a11.813,11.813,0,0,0-6.531,4.658L0,42.857v4.394H47.251V42.857Z" transform="translate(117.539 24.842)" fill="#ffcf83"/>
    <path id="Fill_4" data-name="Fill 4" d="M3.881,2.215A11.049,11.049,0,0,1,0,1.514,11.01,11.01,0,0,0,5.948,3.248a11.03,11.03,0,0,0,4.577-.991V0A11.025,11.025,0,0,1,3.881,2.215Z" transform="translate(135.783 50.881)" fill="#f7a74f"/>
    <path id="Stroke_6" data-name="Stroke 6" d="M2.2,2.055A1.625,1.625,0,0,0,0,.128" transform="translate(128.277 37.836)" fill="none" stroke="#00004d" stroke-linecap="round" stroke-linejoin="round" stroke-miterlimit="10" stroke-width="1"/>
    <path id="Stroke_8" data-name="Stroke 8" d="M.058,2.055A1.625,1.625,0,0,1,2.257.128" transform="translate(151.796 37.836)" fill="none" stroke="#00004d" stroke-linecap="round" stroke-linejoin="round" stroke-miterlimit="10" stroke-width="1"/>
    <path id="t-shirt" d="M47.773,12.725,43.438,6.455a11.943,11.943,0,0,0-6.6-4.709L30.6,0a6.718,6.718,0,0,1-6.718,6.718h0A6.718,6.718,0,0,1,17.168,0L10.937,1.745a11.944,11.944,0,0,0-6.6,4.709L0,12.725v4.443H47.773Z" transform="translate(117.159 54.925)" fill="#f48fb1"/>
    <g id="eyes_happy" data-name="eyes/happy" transform="translate(131.407 36.83)">
      <rect id="eyes_happy_background" data-name="eyes/happy background" width="19.428" height="7.771" transform="translate(0 0)" fill="#ffcf83"/>
      <path id="eye-right" d="M1.462,1.828a2.181,2.181,0,0,1,1.249.392A1.462,1.462,0,1,0,0,1.462a1.452,1.452,0,0,0,.213.757,2.181,2.181,0,0,1,1.249-.392" transform="translate(14.424 2.409)" fill="#00004d"/>
      <path id="eye-left" d="M1.462,1.828a2.181,2.181,0,0,1,1.249.392A1.462,1.462,0,1,0,0,1.462a1.452,1.452,0,0,0,.213.757,2.181,2.181,0,0,1,1.249-.392" transform="translate(2.361 2.409)" fill="#00004d"/>
    </g>
    <g id="nose_default" data-name="nose/default" transform="matrix(0.999, 0.035, -0.035, 0.999, 138.263, 35.806)">
      <rect id="nose_default_background" data-name="nose/default background" width="6.926" height="10.004" rx="3.463" transform="translate(0 0)" fill="#ffcf83"/>
      <path id="nose" d="M.686,0,2.4,5.615,0,5.945" transform="translate(2.296 1.982)" fill="none" stroke="#00004d" stroke-linecap="round" stroke-linejoin="round" stroke-miterlimit="10" stroke-width="1"/>
    </g>
    <g id="head_hair_long_03" data-name="head/hair/long/03" transform="translate(125.815 23.744)">
      <path id="long-03" d="M0,29.911,1.814,18.427a2.942,2.942,0,0,0,1.928-.162,11.185,11.185,0,0,0,4.472,8.614v3.032Zm21.655,0V26.879a11.184,11.184,0,0,0,4.472-8.614,2.946,2.946,0,0,0,1.929.162L29.87,29.911Zm2.8-18.591H19.11l-1.469-4.3v4.3H5.411l-.485,2.422a2.978,2.978,0,0,0-2.184-1.187v0l.392-2.481A11.877,11.877,0,0,1,4.752,5.7a11.951,11.951,0,0,1,20.365,0,11.877,11.877,0,0,1,1.619,4.375l.392,2.481v0a2.978,2.978,0,0,0-2.184,1.187Z" transform="translate(0 0)" fill="#00004d"/>
    </g>
    <g id="mouth_sad" data-name="mouth/sad" transform="translate(137.316 45.87)">
      <rect id="mouth_sad_background" data-name="mouth/sad background" width="7.869" height="5.902" fill="#ffcf83"/>
      <path id="sad" d="M2.471,0A1.474,1.474,0,0,1,1.223.688,1.474,1.474,0,0,1,0,.038" transform="translate(5.17 2.016) rotate(180)" fill="none" stroke="#00004d" stroke-linecap="round" stroke-linejoin="round" stroke-miterlimit="10" stroke-width="1"/>
    </g>
  </g>
</svg>
