<svg xmlns="http://www.w3.org/2000/svg" width="55.168" height="42.918" viewBox="0 0 55.168 42.918">
  <g id="Group_62" data-name="Group 62" transform="translate(-102.561 -236.014)">
    <path id="Path_218" data-name="Path 218" d="M178.982,322.559h0a156.357,156.357,0,0,1-39.444,0h0a1.622,1.622,0,0,1-1.44-1.5l-1.082-21.4H181.5l-1.082,21.4A1.621,1.621,0,0,1,178.982,322.559Z" transform="translate(-24.051 -45.165)" fill="#c1e8fb"/>
    <path id="Path_219" data-name="Path 219" d="M225.492,299.656l-1.082,21.4a1.622,1.622,0,0,1-1.44,1.5h0a156.31,156.31,0,0,1-18,1.238,156.289,156.289,0,0,0,21.445-1.238h0a1.622,1.622,0,0,0,1.44-1.5l1.082-21.4Z" transform="translate(-71.486 -45.165)" fill="#acd7ec"/>
    <path id="Path_220" data-name="Path 220" d="M158.622,323.424a156.612,156.612,0,0,1-19.758-1.251,1.891,1.891,0,0,1-1.68-1.755l-1.082-21.4a.261.261,0,0,1,.076-.2.282.282,0,0,1,.2-.082h44.487a.282.282,0,0,1,.2.082.259.259,0,0,1,.076.2l-1.082,21.4a1.891,1.891,0,0,1-1.68,1.755h0A156.609,156.609,0,0,1,158.622,323.424Zm-21.953-24.151,1.068,21.12a1.351,1.351,0,0,0,1.2,1.254,156.109,156.109,0,0,0,39.371,0h0a1.351,1.351,0,0,0,1.2-1.254l1.068-21.12Z" transform="translate(-23.413 -44.515)" fill="#873141"/>
    <rect id="Rectangle_297" data-name="Rectangle 297" width="41.861" height="3.63" transform="translate(114.279 250.861)" fill="#7ed3f7"/>
    <path id="Path_221" data-name="Path 221" d="M182.588,290.4H140.727a.271.271,0,0,1-.276-.266V286.5a.271.271,0,0,1,.276-.266h41.861a.271.271,0,0,1,.276.266v3.63A.271.271,0,0,1,182.588,290.4ZM141,289.867h41.308v-3.1H141Z" transform="translate(-26.448 -35.642)" fill="#873141"/>
    <g id="Group_60" data-name="Group 60" transform="translate(114.796 242.496)">
      <path id="Path_222" data-name="Path 222" d="M184.5,258.339c.657,2.21-4.268,4.1-11.327,5.051s-20.52-.631-25.445-.947a3.99,3.99,0,0,0-4.651,4.261h41.341v.033a.794.794,0,0,0,.082-.033C186.8,265.6,184.5,258.339,184.5,258.339Z" transform="translate(-143.079 -258.339)" fill="#f7b7d3"/>
    </g>
    <g id="Group_61" data-name="Group 61" transform="translate(114.796 242.496)">
      <path id="Path_223" data-name="Path 223" d="M149.621,264.179c4.925.316,18.386,1.894,25.445.947,4.754-.638,8.537-1.706,10.3-3.01a27.422,27.422,0,0,0-.863-3.777c.657,2.21-4.268,4.1-11.327,5.051s-20.52-.631-25.445-.947a3.99,3.99,0,0,0-4.651,4.261h2.155C145.668,265.447,146.776,264,149.621,264.179Z" transform="translate(-143.08 -258.339)" fill="#fbd9e8"/>
    </g>
    <path id="Path_224" data-name="Path 224" d="M183.782,266.354a.283.283,0,0,1-.133-.033H142.442a.272.272,0,0,1-.276-.251,4.775,4.775,0,0,1,1.291-3.457,4.649,4.649,0,0,1,3.655-1.085c1.038.067,2.458.189,4.1.332,6.268.542,15.741,1.361,21.285.617,5.8-.777,9.872-2.152,10.9-3.676a1.173,1.173,0,0,0,.2-1.038.264.264,0,0,1,.188-.328.279.279,0,0,1,.343.177c.242.765,2.3,7.509-.141,8.68a1.057,1.057,0,0,1-.111.045A.284.284,0,0,1,183.782,266.354Zm-41.064-.564h41.076c1.362-.757.745-4.476.147-6.817-.024.04-.048.079-.075.118-1.134,1.676-5.25,3.1-11.291,3.913-5.607.752-15.118-.07-21.411-.615-1.641-.142-3.059-.264-4.09-.331a4.117,4.117,0,0,0-3.226.93A4.168,4.168,0,0,0,142.719,265.79Z" transform="translate(-27.643 -15.194)" fill="#873141"/>
    <rect id="Rectangle_298" data-name="Rectangle 298" width="28.892" height="9.154" transform="translate(120.763 261.12)" fill="#febe40"/>
    <rect id="Rectangle_299" data-name="Rectangle 299" width="28.892" height="2.392" transform="translate(120.763 261.12)" fill="#ffd56a"/>
    <path id="Path_225" data-name="Path 225" d="M190,331.259H163.291a1.342,1.342,0,0,1-1.366-1.313v-7.059a1.342,1.342,0,0,1,1.366-1.313H190a1.342,1.342,0,0,1,1.366,1.313v7.059A1.342,1.342,0,0,1,190,331.259ZM163.291,322.1a.8.8,0,0,0-.813.782v7.059a.8.8,0,0,0,.813.782H190a.8.8,0,0,0,.813-.782v-7.059A.8.8,0,0,0,190,322.1Z" transform="translate(-41.438 -60.719)" fill="#873141"/>
    <path id="Path_226" data-name="Path 226" d="M110.09,240.455l-6.539,33.557a4.328,4.328,0,0,0,3.548,5.03l1.466.277,8.192-42.042-1.391-.262A4.483,4.483,0,0,0,110.09,240.455Z" transform="translate(-0.637 -0.652)" fill="#febe40"/>
    <path id="Path_227" data-name="Path 227" d="M107.929,278.932a.3.3,0,0,1-.053,0l-1.466-.277a4.608,4.608,0,0,1-3.766-5.34l6.539-33.557a4.542,4.542,0,0,1,2.009-2.948,4.884,4.884,0,0,1,3.592-.7l1.391.262a.266.266,0,0,1,.218.31L108.2,278.715a.265.265,0,0,1-.117.171A.285.285,0,0,1,107.929,278.932Zm1.525-39.129.272.049-6.539,33.557a4.073,4.073,0,0,0,3.329,4.721l1.193.225,8.091-41.519-1.122-.212a4.321,4.321,0,0,0-3.175.622,4.015,4.015,0,0,0-1.776,2.606Z" transform="translate(0)" fill="#873141"/>
  </g>
</svg>
