<svg xmlns="http://www.w3.org/2000/svg" width="46.729" height="62.695" viewBox="0 0 46.729 62.695">
  <g id="Group_394" data-name="Group 394" transform="translate(-216.293 -19.35)">
    <path id="Fill_1" data-name="Fill 1" d="M42.489,36.25a11.682,11.682,0,0,0-6.458-4.606l-6.095-1.707V25.555a10.934,10.934,0,0,0,4.373-8.426,2.92,2.92,0,1,0,.008-5.348v-.829A10.952,10.952,0,0,0,23.365,0h0A10.952,10.952,0,0,0,12.413,10.952v.829a2.921,2.921,0,1,0,.008,5.348,10.934,10.934,0,0,0,4.372,8.426v4.381L10.7,31.643A11.682,11.682,0,0,0,4.24,36.25L0,42.384v4.346H46.729V42.384Z" transform="translate(216.293 26.26)" fill="#ffcf83"/>
    <path id="Fill_4" data-name="Fill 4" d="M3.838,2.19A10.927,10.927,0,0,1,0,1.5,10.889,10.889,0,0,0,5.882,3.213a10.908,10.908,0,0,0,4.527-.98V0A10.9,10.9,0,0,1,3.838,2.19Z" transform="translate(235.82 51.815)" fill="#f7a74f"/>
    <path id="t-shirt" d="M31.21,11.46,28.378,5.813a8.429,8.429,0,0,0-4.314-4.241L19.994,0c0,3.341-1.965,6.05-4.389,6.05h0c-2.424,0-4.389-2.709-4.389-6.05L7.146,1.572A8.429,8.429,0,0,0,2.832,5.813L0,11.46v4H31.21Z" transform="translate(255.639 79.158) rotate(180)" fill="#fefefe"/>
    <rect id="eyes_happy_background" data-name="eyes/happy background" width="20" height="7" transform="translate(229.652 38.75)" fill="#ffcf83"/>
    <path id="eye-right" d="M1.446,1.808a2.157,2.157,0,0,1,1.235.387A1.445,1.445,0,1,0,0,1.446a1.436,1.436,0,0,0,.211.749,2.157,2.157,0,0,1,1.235-.387" transform="translate(244.272 40.498)" fill="#00004d"/>
    <path id="eye-left" d="M1.446,1.808a2.157,2.157,0,0,1,1.235.387A1.445,1.445,0,1,0,0,1.446a1.436,1.436,0,0,0,.211.749,2.157,2.157,0,0,1,1.235-.387" transform="translate(232.342 40.498)" fill="#00004d"/>
    <rect id="nose_default_background" data-name="nose/default background" width="6.85" height="9.894" rx="3.425" transform="matrix(0.999, 0.035, -0.035, 0.999, 236.789, 37.103)" fill="#ffcf83"/>
    <path id="nose" d="M.678,0l1.7,5.553L0,5.88" transform="matrix(0.999, 0.035, -0.035, 0.999, 238.989, 39.141)" fill="none" stroke="#00004d" stroke-linecap="round" stroke-linejoin="round" stroke-miterlimit="10" stroke-width="1"/>
    <path id="long-05" d="M18.916,6.8a6.139,6.139,0,0,0,.046-.734A6.068,6.068,0,1,0,6.872,6.8,12.89,12.89,0,0,0,0,18.2c0,.209.007.415.017.621.094-.009.189-.015.286-.015a3.023,3.023,0,0,1,2.172.918,15.228,15.228,0,0,0,6.832-6.161A22.671,22.671,0,0,0,23.246,19.8a3.022,3.022,0,0,1,2.239-.991c.1,0,.192.006.286.015.01-.206.018-.413.018-.621A12.89,12.89,0,0,0,18.916,6.8" transform="translate(226.764 21.592)" fill="#00004d"/>
    <path id="Fill_1-2" data-name="Fill 1" d="M16.706,12.418l8.621,5.176a7.278,7.278,0,0,1,3.4,6.357v.335a4.732,4.732,0,0,0,4.68-4.685V14.815a10.353,10.353,0,0,0-3.853-8.1L24.644,2.8a12.663,12.663,0,0,0-15.875,0L3.853,6.718A10.353,10.353,0,0,0,0,14.815V19.6a4.727,4.727,0,0,0,4.674,4.685v-.335a7.283,7.283,0,0,1,3.411-6.357Z" transform="translate(222.834 19.35)" fill="#fefefe"/>
    <path id="Stroke_4" data-name="Stroke 4" d="M0,5.723,9.533,0" transform="translate(239.54 26.044)" fill="none" stroke="#c0c0c7" stroke-linecap="round" stroke-linejoin="round" stroke-miterlimit="10" stroke-width="2"/>
    <path id="Stroke_6" data-name="Stroke 6" d="M14.2,0S2.787,10,1.242,11.365A3.259,3.259,0,0,0,0,13.935" transform="translate(222.996 24.907)" fill="none" stroke="#c0c0c7" stroke-linecap="round" stroke-linejoin="round" stroke-miterlimit="10" stroke-width="2"/>
    <path id="Stroke_8" data-name="Stroke 8" d="M0,0S7.719,6.763,9.263,8.129a3.258,3.258,0,0,1,1.242,2.57" transform="translate(245.578 28.142)" fill="none" stroke="#c0c0c7" stroke-linecap="round" stroke-linejoin="round" stroke-miterlimit="10" stroke-width="2"/>
    <path id="Path_160" data-name="Path 160" d="M.643,0l34.9.442V8.1L0,8.745Z" transform="translate(220.633 73.3) rotate(-1)" fill="#fee5dd"/>
    <rect id="mouth_sad_background" data-name="mouth/sad background" width="7.782" height="5.836" transform="translate(235.852 47.056)" fill="#ffcf83"/>
    <path id="sad" d="M2.443,0A1.458,1.458,0,0,1,1.209.68,1.458,1.458,0,0,1,0,.038" transform="translate(240.965 49.05) rotate(180)" fill="none" stroke="#00004d" stroke-linecap="round" stroke-linejoin="round" stroke-miterlimit="10" stroke-width="1"/>
  </g>
</svg>
