<svg xmlns="http://www.w3.org/2000/svg" width="31.182" height="58.371" viewBox="0 0 31.182 58.371">
  <g id="Group_59" data-name="Group 59" transform="translate(-1151.094 -223.424)">
    <path id="Path_209" data-name="Path 209" d="M1187.813,372.165H1170.6a1.516,1.516,0,0,1-1.44-1.583V360.275h20.091v10.308A1.517,1.517,0,0,1,1187.813,372.165Z" transform="translate(-12.522 -90.679)" fill="#febe40"/>
    <path id="Path_210" data-name="Path 210" d="M1187.178,371.867h-17.211a1.814,1.814,0,0,1-1.721-1.892V359.668a.3.3,0,0,1,.281-.309h20.091a.3.3,0,0,1,.281.309v10.308A1.816,1.816,0,0,1,1187.178,371.867Zm-18.372-11.89v10a1.222,1.222,0,0,0,1.159,1.274h17.211a1.222,1.222,0,0,0,1.159-1.274v-10Z" transform="translate(-11.887 -90.072)" fill="#873141"/>
    <path id="Path_211" data-name="Path 211" d="M1152.02,226.248l5.252,43.956h20.091l5.252-43.956a1.64,1.64,0,0,0-1.522-1.907h-27.549A1.641,1.641,0,0,0,1152.02,226.248Z" transform="translate(-0.633 -0.608)" fill="#c1e8fb"/>
    <path id="Path_212" data-name="Path 212" d="M1176.73,269.906H1156.64a.292.292,0,0,1-.279-.268l-5.251-43.956a2.131,2.131,0,0,1,.435-1.577,1.75,1.75,0,0,1,1.365-.68h27.549a1.75,1.75,0,0,1,1.366.68,2.132,2.132,0,0,1,.436,1.577l-5.252,43.956A.293.293,0,0,1,1176.73,269.906Zm-19.845-.618h19.6L1181.7,225.6a1.473,1.473,0,0,0-.3-1.089,1.21,1.21,0,0,0-.943-.47h-27.549a1.208,1.208,0,0,0-.943.47,1.473,1.473,0,0,0-.3,1.089Z" transform="translate(0 -0.001)" fill="#873141"/>
    <path id="Path_213" data-name="Path 213" d="M1188.307,365.68h-3.934a5.178,5.178,0,0,1-4.917-5.4h13.769A5.178,5.178,0,0,1,1188.307,365.68Z" transform="translate(-19.656 -90.679)" fill="#f68c3d"/>
    <path id="Path_214" data-name="Path 214" d="M1187.673,365.381h-3.934a5.48,5.48,0,0,1-5.2-5.714.3.3,0,0,1,.281-.309h13.769a.3.3,0,0,1,.281.309A5.481,5.481,0,0,1,1187.673,365.381Zm-8.562-5.4a4.856,4.856,0,0,0,4.628,4.787h3.934a4.856,4.856,0,0,0,4.628-4.787Z" transform="translate(-19.022 -90.072)" fill="#873141"/>
    <path id="Path_215" data-name="Path 215" d="M1152.683,230.671h29.379l.58-4.4a1.642,1.642,0,0,0-1.519-1.93h-27.5a1.642,1.642,0,0,0-1.52,1.93Z" transform="translate(-0.688 -0.607)" fill="#7ed3f7"/>
    <path id="Path_216" data-name="Path 216" d="M1181.43,230.373h-29.38a.291.291,0,0,1-.278-.264l-.581-4.4a2.135,2.135,0,0,1,.424-1.593,1.751,1.751,0,0,1,1.374-.69h27.5a1.751,1.751,0,0,1,1.374.69,2.135,2.135,0,0,1,.424,1.593l-.581,4.4A.292.292,0,0,1,1181.43,230.373Zm-29.137-.618h28.893l.546-4.137a1.474,1.474,0,0,0-.293-1.1,1.209,1.209,0,0,0-.949-.476h-27.5a1.209,1.209,0,0,0-.948.476,1.471,1.471,0,0,0-.293,1.1Z" transform="translate(-0.055 0)" fill="#873141"/>
    <path id="Path_217" data-name="Path 217" d="M1192.435,289.181h0a4.513,4.513,0,0,1-4.285-4.71v-16.06a4.513,4.513,0,0,1,4.285-4.71h0a4.512,4.512,0,0,1,4.285,4.71v16.06A4.512,4.512,0,0,1,1192.435,289.181Z" transform="translate(-25.681 -26.688)" fill="#def0f9"/>
  </g>
</svg>
