<svg xmlns="http://www.w3.org/2000/svg" width="45.667" height="57" viewBox="0 0 45.667 57">
  <g id="Group_160" data-name="Group 160" transform="translate(-1083.641 -74.602)">
    <g id="Group_128" data-name="Group 128" transform="translate(1083.641 74.602)">
      <path id="Path_446" data-name="Path 446" d="M1092.781,76.424h-7.316l.628,49.175H1107V92.159C1107,83.469,1100.633,76.424,1092.781,76.424Z" transform="translate(-1085.025 -75.984)" fill="#72c6a7"/>
      <path id="Path_447" data-name="Path 447" d="M1105.616,95.459a.44.44,0,0,1-.44-.44V89.256A13.789,13.789,0,0,0,1091.4,75.483h-7.316a.44.44,0,1,1,0-.881h7.316a14.671,14.671,0,0,1,14.654,14.654v5.763A.442.442,0,0,1,1105.616,95.459Z" transform="translate(-1083.645 -74.602)" fill="#345141"/>
      <path id="Path_448" data-name="Path 448" d="M1173.178,244.548a.44.44,0,0,1-.44-.44v-4.7a.44.44,0,1,1,.88,0v4.7A.442.442,0,0,1,1173.178,244.548Z" transform="translate(-1151.207 -194.492)" fill="#345141"/>
      <path id="Path_449" data-name="Path 449" d="M1085.47,121.248V161.78h2.889a13.572,13.572,0,0,0,13.572-13.572V121.248Z" transform="translate(-1085.028 -105.221)" fill="#f1f7f4"/>
      <path id="Path_450" data-name="Path 450" d="M1100.11,121.248v26.961a13.572,13.572,0,0,1-13.572,13.572h2.632a13.572,13.572,0,0,0,13.572-13.572V121.248Z" transform="translate(-1085.838 -105.221)" fill="#cee2db"/>
      <path id="Path_451" data-name="Path 451" d="M1086.971,160.839h-2.889a.44.44,0,1,1,0-.881h2.889a13.146,13.146,0,0,0,13.132-13.132v-26.52h-12.17a.44.44,0,0,1,0-.881h12.61a.44.44,0,0,1,.44.44v26.961A14.025,14.025,0,0,1,1086.971,160.839Z" transform="translate(-1083.641 -103.839)" fill="#345141"/>
      <path id="Path_452" data-name="Path 452" d="M1117.672,173.635h-7.953a.44.44,0,0,1,0-.881h7.953a.44.44,0,1,1,0,.881Z" transform="translate(-1103.084 -146.839)" fill="#345141"/>
      <path id="Path_453" data-name="Path 453" d="M1118.889,189.21a.44.44,0,0,1-.175-.036,6.262,6.262,0,0,0-4.956,0,.44.44,0,1,1-.35-.808,7.146,7.146,0,0,1,5.655,0,.44.44,0,0,1-.175.844Z" transform="translate(-1106.014 -157.872)" fill="#345141"/>
      <path id="Path_454" data-name="Path 454" d="M1155.433,203.449h-1.844v-9.693h1.844a3.419,3.419,0,0,1,3.419,3.419v2.855A3.421,3.421,0,0,1,1155.433,203.449Z" transform="translate(-1136.686 -161.743)" fill="#eaf6f7"/>
      <path id="Path_455" data-name="Path 455" d="M1085.47,97.443v16.018a12.619,12.619,0,0,0,11.068-12.523v-3.5Z" transform="translate(-1085.028 -91.923)" fill="#72c6a7"/>
      <path id="Path_456" data-name="Path 456" d="M1154.052,202.507h-1.844a.44.44,0,0,1-.44-.44v-9.693a.44.44,0,0,1,.44-.44h1.844a3.864,3.864,0,0,1,3.859,3.859v2.855A3.865,3.865,0,0,1,1154.052,202.507Zm-1.4-.88h1.4a2.982,2.982,0,0,0,2.979-2.979v-2.855a2.982,2.982,0,0,0-2.979-2.979h-1.4Z" transform="translate(-1135.304 -160.344)" fill="#345141"/>
      <path id="Path_457" data-name="Path 457" d="M1133.339,123.121h-2.159a7.761,7.761,0,0,1-7.761-7.761v-4.68h5.02a4.9,4.9,0,0,1,4.9,4.9Z" transform="translate(-1113.806 -100.92)" fill="#72c6a7"/>
      <path id="Path_458" data-name="Path 458" d="M1132.69,142.782h-2.16a8.185,8.185,0,0,1-7.957-6.21.44.44,0,1,1,.854-.213,7.306,7.306,0,0,0,7.1,5.542h2.16a.44.44,0,0,1,0,.881Z" transform="translate(-1113.155 -119.631)" fill="#345141"/>
      <path id="Path_459" data-name="Path 459" d="M1084.09,122.559a.44.44,0,0,1-.053-.877,12.175,12.175,0,0,0,10.682-12.088v-.3a.44.44,0,1,1,.88,0v.3a13.055,13.055,0,0,1-11.455,12.962A.458.458,0,0,1,1084.09,122.559Z" transform="translate(-1083.648 -99.558)" fill="#345141"/>
      <path id="Path_460" data-name="Path 460" d="M1084.088,246.364a.44.44,0,1,1,0-.881,11.154,11.154,0,0,0,5.2-1.292.44.44,0,0,1,.412.778A12.047,12.047,0,0,1,1084.088,246.364Z" transform="translate(-1083.646 -199.276)" fill="#345141"/>
    </g>
    <g id="Group_131" data-name="Group 131" transform="translate(1087.943 92.291)">
      <g id="Group_129" data-name="Group 129" transform="translate(1.853 0)">
        <path id="Path_461" data-name="Path 461" d="M1140.307,150.548l.006-.006a1.621,1.621,0,0,1,1.216-.471,5.5,5.5,0,0,0,4.067-1.68,5.644,5.644,0,0,0,1.66-3.373,1.674,1.674,0,0,1,.476-1.015l5.133-5.133-3.87-3.87-5.133,5.133a1.674,1.674,0,0,1-1.015.476,5.645,5.645,0,0,0-3.373,1.66,5.5,5.5,0,0,0-1.68,4.067,1.62,1.62,0,0,1-.47,1.216l-.006.006a10.778,10.778,0,0,1-8.755,3.1l8.639,8.639A10.787,10.787,0,0,1,1140.307,150.548Z" transform="translate(-1117.529 -133.339)" fill="#f1f7f4"/>
        <path id="Path_462" data-name="Path 462" d="M1153.862,156.62l.006-.006a1.621,1.621,0,0,1,1.216-.471,5.5,5.5,0,0,0,4.067-1.68,5.645,5.645,0,0,0,1.66-3.373,1.673,1.673,0,0,1,.476-1.015l5.133-5.133-1.935-1.935-18.048,18.048,4.319,4.32A10.788,10.788,0,0,1,1153.862,156.62Z" transform="translate(-1131.084 -139.411)" fill="#cee2db"/>
        <path id="Path_463" data-name="Path 463" d="M1138.1,158.361a.628.628,0,0,1-.39-.129l-1.56-1.247a.381.381,0,0,1,0-.623.653.653,0,0,1,.779,0l.547.437a10.194,10.194,0,0,1,4.12-7.945l.007-.006a2.969,2.969,0,0,1,1.937-.6,7.188,7.188,0,0,0,4.675-1.552,4.891,4.891,0,0,0,1.919-3.107,1.978,1.978,0,0,1,.754-1.281l6.034-4.822-4.064-3.247-6.034,4.822a2.977,2.977,0,0,1-1.6.6,7.242,7.242,0,0,0-3.888,1.534,4.589,4.589,0,0,0-1.942,3.736,1.86,1.86,0,0,1-.749,1.547l-.008.006a15.966,15.966,0,0,1-9.933,3.292h-.01l1.76,1.407a.381.381,0,0,1,0,.623.653.653,0,0,1-.779,0l-2.774-2.217a.377.377,0,0,1-.108-.5.588.588,0,0,1,.554-.249,14.96,14.96,0,0,0,10.51-2.978l.007-.006a1.064,1.064,0,0,0,.428-.885,5.382,5.382,0,0,1,2.264-4.4,8.475,8.475,0,0,1,4.554-1.787,1.739,1.739,0,0,0,.937-.349l6.424-5.133a.653.653,0,0,1,.779,0l4.843,3.87a.381.381,0,0,1,0,.623l-6.423,5.133a1.153,1.153,0,0,0-.437.749,5.714,5.714,0,0,1-2.237,3.639,8.455,8.455,0,0,1-5.5,1.809,1.7,1.7,0,0,0-1.108.342l-.007.006a9.2,9.2,0,0,0-3.727,8.4.433.433,0,0,1-.311.443A.648.648,0,0,1,1138.1,158.361Z" transform="translate(-1122.478 -131.957)" fill="#345141"/>
        <rect id="Rectangle_311" data-name="Rectangle 311" width="2.836" height="3.257" transform="translate(32.247 2.448) rotate(-45)" fill="#fdc57a"/>
        <path id="Path_464" data-name="Path 464" d="M1217.281,133.313a.44.44,0,0,1-.311-.129l-2.3-2.3a.44.44,0,0,1,0-.623l2.005-2.005a.44.44,0,0,1,.623,0l2.3,2.3a.44.44,0,0,1,0,.623l-2.005,2.005A.444.444,0,0,1,1217.281,133.313Zm-1.682-2.743,1.68,1.68,1.382-1.382-1.68-1.68Z" transform="translate(-1182.728 -128.124)" fill="#345141"/>
        <rect id="Rectangle_312" data-name="Rectangle 312" width="4.817" height="14.641" transform="translate(0.438 19.875) rotate(-45)" fill="#fdc57a"/>
        <rect id="Rectangle_313" data-name="Rectangle 313" width="4.817" height="3.722" transform="translate(10.255 27.597) rotate(-45)" fill="#f9a01b"/>
        <path id="Path_465" data-name="Path 465" d="M1119.9,209.089a.44.44,0,0,1-.311-.129l-10.353-10.353a.44.44,0,0,1,0-.623l3.406-3.406a.44.44,0,0,1,.623,0l4.025,4.025a.44.44,0,0,1-.623.623l-3.714-3.713-2.783,2.783,9.73,9.73,2.783-2.783-4.211-4.211a.44.44,0,0,1,.623-.623l4.523,4.523a.44.44,0,0,1,0,.623l-3.406,3.406A.444.444,0,0,1,1119.9,209.089Z" transform="translate(-1109.108 -178.422)" fill="#345141"/>
      </g>
      <path id="Path_466" data-name="Path 466" d="M1113.888,241.039a.44.44,0,0,1-.311-.752l2.194-2.194a.44.44,0,1,1,.623.623l-2.194,2.194A.442.442,0,0,1,1113.888,241.039Z" transform="translate(-1110.546 -211.421)" fill="#fdc57a"/>
      <g id="Group_130" data-name="Group 130" transform="translate(0 22.143)">
        <path id="Path_467" data-name="Path 467" d="M1139.893,250.065a.44.44,0,0,1-.436-.384l-.407-3.143a.44.44,0,1,1,.873-.113l.407,3.143a.44.44,0,0,1-.437.5Z" transform="translate(-1129.959 -239.688)" fill="#fdc57a"/>
        <path id="Path_468" data-name="Path 468" d="M1128.747,248.2a.441.441,0,0,1-.426-.554l.809-3.016a.44.44,0,1,1,.85.228l-.809,3.016A.441.441,0,0,1,1128.747,248.2Z" transform="translate(-1121.814 -238.372)" fill="#fdc57a"/>
        <path id="Path_469" data-name="Path 469" d="M1105.024,221.04a.44.44,0,0,1-.057,0l-3.143-.407a.44.44,0,1,1,.113-.873l3.143.407a.44.44,0,0,1-.056.877Z" transform="translate(-1101.44 -219.753)" fill="#fdc57a"/>
        <path id="Path_470" data-name="Path 470" d="M1104.139,230.522a.44.44,0,0,1-.114-.866l3.016-.809a.44.44,0,0,1,.228.851l-3.016.809A.427.427,0,0,1,1104.139,230.522Z" transform="translate(-1103.153 -226.638)" fill="#fdc57a"/>
      </g>
    </g>
    <path id="Path_471" data-name="Path 471" d="M1231.485,142.589a.44.44,0,0,1-.44-.44V128.008h-1.791l-1.193,1.193a.44.44,0,1,1-.623-.623l1.322-1.322a.44.44,0,0,1,.311-.129h2.413a.44.44,0,0,1,.44.44v14.581A.44.44,0,0,1,1231.485,142.589Z" transform="translate(-102.617 -38.192)" fill="#345141"/>
  </g>
</svg>
