<svg xmlns="http://www.w3.org/2000/svg" width="45.779" height="46.626" viewBox="0 0 45.779 46.626">
  <g id="Group_395" data-name="Group 395" transform="translate(-307 -23.66)">
    <path id="Fill_1" data-name="Fill 1" d="M41.17,35.125a11.32,11.32,0,0,0-6.258-4.463l-5.906-1.654V24.762A10.6,10.6,0,0,0,33.244,16.6a2.83,2.83,0,1,0,.008-5.182v-.8A10.612,10.612,0,0,0,22.64,0h0A10.612,10.612,0,0,0,12.027,10.612v.8a2.83,2.83,0,1,0,.008,5.182,10.6,10.6,0,0,0,4.237,8.165v4.245l-5.906,1.654a11.32,11.32,0,0,0-6.258,4.463L0,41.068v4.211H45.279V41.068Z" transform="translate(307.364 25.006)" fill="#ffcf83"/>
    <path id="Fill_4" data-name="Fill 4" d="M3.719,2.122A10.587,10.587,0,0,1,0,1.451,10.551,10.551,0,0,0,5.7,3.113a10.569,10.569,0,0,0,4.386-.949V0A10.565,10.565,0,0,1,3.719,2.122Z" transform="translate(326.285 49.768)" fill="#f7a74f"/>
    <path id="Stroke_6" data-name="Stroke 6" d="M2.107,1.969A1.557,1.557,0,0,0,0,.122" transform="translate(317.654 37.458)" fill="none" stroke="#00004d" stroke-linecap="round" stroke-linejoin="round" stroke-miterlimit="10" stroke-width="1"/>
    <path id="Stroke_8" data-name="Stroke 8" d="M.055,1.969A1.558,1.558,0,0,1,2.162.122" transform="translate(340.192 37.458)" fill="none" stroke="#00004d" stroke-linecap="round" stroke-linejoin="round" stroke-miterlimit="10" stroke-width="1"/>
    <path id="t-shirt" d="M45.779,12.194,41.625,6.185A11.444,11.444,0,0,0,35.3,1.673L29.327,0a6.438,6.438,0,0,1-6.438,6.438h0A6.438,6.438,0,0,1,16.452,0L10.481,1.673A11.445,11.445,0,0,0,4.154,6.185L0,12.194v4.257H45.779Z" transform="translate(307 53.834)" fill="#fbbca8"/>
    <rect id="eyes_happy_background" data-name="eyes/happy background" width="18" height="8" transform="translate(321 36.06)" fill="#ffcf83"/>
    <path id="eye-right" d="M1.4,1.751a2.09,2.09,0,0,1,1.2.375A1.4,1.4,0,1,0,0,1.4a1.391,1.391,0,0,0,.2.726,2.09,2.09,0,0,1,1.2-.375" transform="translate(334.474 38.802)" fill="#00004d"/>
    <path id="eye-left" d="M1.4,1.751a2.09,2.09,0,0,1,1.2.375A1.4,1.4,0,1,0,0,1.4a1.391,1.391,0,0,0,.2.726,2.09,2.09,0,0,1,1.2-.375" transform="translate(322.915 38.802)" fill="#00004d"/>
    <rect id="nose_default_background" data-name="nose/default background" width="6.637" height="9.587" rx="3.319" transform="matrix(0.999, 0.035, -0.035, 0.999, 327.223, 35.512)" fill="#ffcf83"/>
    <path id="nose" d="M.657,0,2.3,5.381,0,5.7" transform="matrix(0.999, 0.035, -0.035, 0.999, 329.356, 37.487)" fill="none" stroke="#00004d" stroke-linecap="round" stroke-linejoin="round" stroke-miterlimit="10" stroke-width="1"/>
    <g id="head_hair_long_07" data-name="head/hair/long/07" transform="translate(310.33 23.66)">
      <path id="long-07" d="M0,22.668a7.124,7.124,0,0,1,5.254-6.862,2.861,2.861,0,0,0,3.993,2.313,10.639,10.639,0,0,0,4.11,8.075A7.154,7.154,0,0,1,0,22.668Zm8.1-10c-.091,0-.181.005-.269.014-.01-.193-.017-.387-.017-.583a12.153,12.153,0,0,1,24.305,0c0,.2-.006.39-.016.583-.089-.008-.179-.014-.27-.014a2.855,2.855,0,0,0-2.047.862,14.329,14.329,0,0,1-6.44-5.781A21.412,21.412,0,0,1,10.208,13.6,2.854,2.854,0,0,0,8.1,12.667Z" transform="translate(0 0)" fill="#00004d"/>
    </g>
    <rect id="mouth_sad_background" data-name="mouth/sad background" width="7.54" height="5.655" transform="translate(326.316 45.157)" fill="#ffcf83"/>
    <path id="sad" d="M2.368,0a1.413,1.413,0,0,1-1.2.659A1.413,1.413,0,0,1,0,.037" transform="translate(331.27 47.088) rotate(180)" fill="none" stroke="#00004d" stroke-linecap="round" stroke-linejoin="round" stroke-miterlimit="10" stroke-width="1"/>
  </g>
</svg>
