<svg xmlns="http://www.w3.org/2000/svg" width="33.513" height="58.371" viewBox="0 0 33.513 58.371">
  <g id="Group_64" data-name="Group 64" transform="translate(-136.886 -570.756)">
    <path id="Path_228" data-name="Path 228" d="M163.883,667.641H140.549a2.748,2.748,0,0,1-2.748-2.749V628.427a2.749,2.749,0,0,1,2.748-2.749h23.334a2.749,2.749,0,0,1,2.748,2.749v36.466A2.749,2.749,0,0,1,163.883,667.641Z" transform="translate(-0.646 -38.783)" fill="#c1e8fb"/>
    <path id="Path_229" data-name="Path 229" d="M219.125,625.678h-3.093a2.749,2.749,0,0,1,2.748,2.749v36.466a2.748,2.748,0,0,1-2.748,2.749h3.093a2.748,2.748,0,0,0,2.748-2.749V628.427A2.749,2.749,0,0,0,219.125,625.678Z" transform="translate(-55.888 -38.783)" fill="#acd7ec"/>
    <path id="Path_230" data-name="Path 230" d="M163.237,667.265H139.9a3.021,3.021,0,0,1-3.017-3.017V627.781a3.021,3.021,0,0,1,3.017-3.017h23.334a3.021,3.021,0,0,1,3.018,3.017v36.466A3.021,3.021,0,0,1,163.237,667.265ZM139.9,625.3a2.483,2.483,0,0,0-2.48,2.48v36.466a2.482,2.482,0,0,0,2.48,2.479h23.334a2.482,2.482,0,0,0,2.48-2.479V627.781a2.483,2.483,0,0,0-2.48-2.48Z" transform="translate(0 -38.137)" fill="#873141"/>
    <rect id="Rectangle_300" data-name="Rectangle 300" width="13.861" height="4.169" transform="translate(144.639 582.726)" fill="#7ed3f7"/>
    <path id="Path_231" data-name="Path 231" d="M176.485,615.282H162.624a.269.269,0,0,1-.269-.269v-4.17a.269.269,0,0,1,.269-.269h13.861a.269.269,0,0,1,.269.269v4.169A.269.269,0,0,1,176.485,615.282Zm-13.592-.538h13.323v-3.631H162.893Z" transform="translate(-17.985 -28.118)" fill="#873141"/>
    <ellipse id="Ellipse_30" data-name="Ellipse 30" cx="7.599" cy="12.979" rx="7.599" ry="12.979" transform="translate(143.971 595.772)" fill="#def0f9"/>
    <path id="Path_232" data-name="Path 232" d="M179.345,586.317H173.36a1.378,1.378,0,0,0-1.378,1.378v6.019h8.742V587.7A1.379,1.379,0,0,0,179.345,586.317Z" transform="translate(-24.782 -10.988)" fill="#febe40"/>
    <path id="Path_233" data-name="Path 233" d="M180.076,593.337h-8.742a.269.269,0,0,1-.269-.269v-6.019a1.649,1.649,0,0,1,1.648-1.648H178.7a1.649,1.649,0,0,1,1.648,1.648v6.019A.269.269,0,0,1,180.076,593.337ZM171.6,592.8h8.2v-5.75a1.111,1.111,0,0,0-1.11-1.11h-5.985a1.111,1.111,0,0,0-1.11,1.11Z" transform="translate(-24.135 -10.342)" fill="#873141"/>
    <path id="Path_234" data-name="Path 234" d="M194.137,571.671H178.4a1.614,1.614,0,0,0-1.614,1.614h0v2.69h6.187v-2.69h11.163v1.48h4.169v-3.094Z" transform="translate(-28.176 -0.646)" fill="#7ed3f7"/>
    <path id="Path_235" data-name="Path 235" d="M182.327,575.6H176.14a.269.269,0,0,1-.269-.269v-2.69a1.885,1.885,0,0,1,1.883-1.883H197.66a.269.269,0,0,1,.269.269v3.093a.269.269,0,0,1-.269.269H193.49a.269.269,0,0,1-.269-.269v-1.21H182.6v2.421A.269.269,0,0,1,182.327,575.6Zm-5.918-.538h5.649v-2.421a.269.269,0,0,1,.269-.269H193.49a.269.269,0,0,1,.269.269v1.21h3.631v-2.555H177.754a1.346,1.346,0,0,0-1.345,1.345v2.421Z" transform="translate(-27.529 0)" fill="#873141"/>
    <g id="Group_63" data-name="Group 63" transform="translate(166.009 576.566)">
      <path id="Path_236" data-name="Path 236" d="M236.58,597.514h0a2.009,2.009,0,0,1-.453-2.147L238,590.529l1.874,4.838a2.01,2.01,0,0,1-.453,2.147h0A2.01,2.01,0,0,1,236.58,597.514Z" transform="translate(-235.991 -590.529)" fill="#f7b7d3"/>
    </g>
    <path id="Path_237" data-name="Path 237" d="M237.355,597.725a2.277,2.277,0,0,1-2.125-3.1l1.874-4.838a.269.269,0,0,1,.5,0l1.874,4.838a2.277,2.277,0,0,1-2.124,3.1Zm0-7.1-1.623,4.191a1.741,1.741,0,1,0,3.246,0Z" transform="translate(-69.336 -13.316)" fill="#873141"/>
  </g>
</svg>
